<?xml version="1.0" encoding="UTF-8"?>
<svg id="Layer_1" xmlns="http://www.w3.org/2000/svg" viewBox="0 0 392.73 406.67">
  <defs>
    <style>
      .cls-1 {
        fill: #2dd4bf;
      }

      .cls-2 {
        fill: #0b89f7;
      }
    </style>
  </defs>
  <path class="cls-2" d="M368.46,297.86c-22.63,30.7-45.26,61.41-67.9,92.11-1.14,1.55-3.59.74-3.59-1.18v-17.95H112.98c-55.17,0-99.89-44.72-99.89-99.89h0c0-55.21,44.79-99.95,100-99.89,23.52.03,47.05.05,70.57.08,2.49,0,4.84,1.13,6.4,3.07,19.72,24.48,39.43,48.95,59.15,73.43-45.38-.15-90.76-.3-136.14-.45-13.15-.04-23.83,10.6-23.83,23.75h0c0,13.12,10.64,23.76,23.76,23.76h253.86c1.63,0,2.57,1.86,1.6,3.17Z"/>
  <path class="cls-1" d="M324.53,248.52c-25.08,15.39-50.17,30.78-75.25,46.17l-.5-151.73c-.04-11.03-9.03-19.92-20.06-19.83-65.79.54-131.57,1.09-197.36,1.63-1.7.01-2.63-1.97-1.54-3.27L114.06,21.22c1.05-1.24,3.07-.5,3.07,1.12v24.49l120.17.94c48.06.38,86.84,39.38,86.96,87.44.09,37.77.18,75.54.27,113.31Z"/>
</svg>