<svg width="16" height="18" viewBox="0 0 16 18" fill="none" xmlns="http://www.w3.org/2000/svg">
<path d="M5.33341 17.3332V14.6314C5.33341 14.1328 5.48666 13.6995 5.73375 13.3081C5.90325 13.0395 5.78717 12.6585 5.481 12.5743C2.94503 11.8772 1.16675 10.7563 1.16675 7.03822C1.16675 6.07159 1.48346 5.1628 2.04017 4.37184C2.17872 4.17499 2.24799 4.07657 2.26465 3.98742C2.2813 3.89828 2.25235 3.78194 2.19443 3.54927C1.95873 2.60227 1.97401 1.59666 2.32776 0.690027C2.32776 0.690027 3.05876 0.451852 4.72257 1.49124C5.10243 1.72856 5.29237 1.84722 5.45966 1.87376C5.62691 1.9003 5.85058 1.8447 6.29783 1.73351C6.9095 1.58146 7.53975 1.49984 8.25008 1.49984C8.96042 1.49984 9.59067 1.58146 10.2023 1.73351C10.6496 1.8447 10.8732 1.9003 11.0405 1.87376C11.2078 1.84722 11.3977 1.72856 11.7776 1.49124C13.4414 0.451852 14.1724 0.690027 14.1724 0.690027C14.5262 1.59666 14.5414 2.60227 14.3057 3.54927C14.2478 3.78194 14.2188 3.89828 14.2355 3.98742C14.2522 4.07656 14.3214 4.17499 14.46 4.37184C15.0167 5.1628 15.3334 6.07159 15.3334 7.03822C15.3334 10.7563 13.5552 11.8772 11.0192 12.5743C10.713 12.6585 10.5969 13.0395 10.7664 13.3081C11.0135 13.6995 11.1667 14.1328 11.1667 14.6314V17.3332" stroke="#FDFDFD" stroke-width="1.25" strokeLinecap="round" strokeLinejoin="round"/>
</svg>
