<svg width="20" height="20" viewBox="0 0 20 20" fill="none" xmlns="http://www.w3.org/2000/svg">
<path d="M9.99999 18.3333C14.6024 18.3333 18.3333 14.6024 18.3333 9.99999C18.3333 5.39762 14.6024 1.66666 9.99999 1.66666C5.39762 1.66666 1.66666 5.39762 1.66666 9.99999C1.66666 14.6024 5.39762 18.3333 9.99999 18.3333Z" stroke="#F7F7F7" stroke-width="1.25"/>
<path d="M6.66666 9.99999C6.66666 15 9.99999 18.3333 9.99999 18.3333C9.99999 18.3333 13.3333 15 13.3333 9.99999C13.3333 4.99999 9.99999 1.66666 9.99999 1.66666C9.99999 1.66666 6.66666 4.99999 6.66666 9.99999Z" stroke="#F7F7F7" stroke-width="1.25" stroke-linejoin="round"/>
<path d="M17.5 12.5H2.5" stroke="#F7F7F7" stroke-width="1.25" stroke-linecap="round" stroke-linejoin="round"/>
<path d="M17.5 7.5H2.5" stroke="#F7F7F7" stroke-width="1.25" stroke-linecap="round" stroke-linejoin="round"/>
</svg>
