<svg width="25" height="25" viewBox="0 0 25 25" fill="none" xmlns="http://www.w3.org/2000/svg">
<path d="M3.5 5.77393H13.5" stroke="#0F96E3" stroke-width="1.5" strokeLinecap="round"/>
<path d="M19.1 17.1665C18.0333 17.8809 17.5 18.2381 17.5 18.7739C17.5 19.3097 18.0333 19.6669 19.1 20.3813C20.1667 21.0957 20.7 21.4528 21.1 21.185C21.5 20.9171 21.5 20.2027 21.5 18.7739C21.5 17.3451 21.5 16.6307 21.1 16.3628C20.7 16.095 20.1667 16.4521 19.1 17.1665Z" stroke="#0F96E3" stroke-width="1.5" strokeLinecap="round"/>
<path d="M19.1 4.16655C18.0333 4.88094 17.5 5.23813 17.5 5.77392C17.5 6.30971 18.0333 6.6669 19.1 7.38129C20.1667 8.09568 20.7 8.45287 21.1 8.18497C21.5 7.91708 21.5 7.20269 21.5 5.77392C21.5 4.34515 21.5 3.63076 21.1 3.36287C20.7 3.09497 20.1667 3.45216 19.1 4.16655Z" stroke="#0F96E3" stroke-width="1.5" strokeLinecap="round"/>
<path d="M3.5 12.2739H13.5" stroke="#0F96E3" stroke-width="1.5" strokeLinecap="round"/>
<path d="M3.5 18.7739H13.5" stroke="#0F96E3" stroke-width="1.5" strokeLinecap="round"/>
</svg>
