<svg width="55" height="28" viewBox="0 0 55 28" fill="none" xmlns="http://www.w3.org/2000/svg">
<rect x="0.367432" y="0.182129" width="54.5063" height="27.54" rx="13.77" fill="#100827"/>
<path d="M17.0531 17.4521H13.1702V16.7579L14.6566 15.2518C14.9443 14.959 15.1809 14.7067 15.3665 14.4949C15.5522 14.2805 15.6895 14.0778 15.7784 13.8869C15.8699 13.6961 15.9156 13.4882 15.9156 13.2633C15.9156 12.9862 15.8359 12.777 15.6764 12.6358C15.5169 12.492 15.3064 12.4201 15.0449 12.4201C14.7965 12.4201 14.5664 12.4697 14.3546 12.5691C14.1455 12.6659 13.9284 12.8044 13.7036 12.9849L13.1976 12.3769C13.3571 12.241 13.5271 12.1168 13.7075 12.0043C13.8905 11.8919 14.0945 11.803 14.3193 11.7376C14.5442 11.6696 14.8005 11.6356 15.0881 11.6356C15.4515 11.6356 15.7653 11.701 16.0294 11.8318C16.2935 11.9599 16.4961 12.139 16.6373 12.3691C16.7811 12.5992 16.853 12.8672 16.853 13.1731C16.853 13.4817 16.7916 13.7667 16.6687 14.0281C16.5458 14.2896 16.3706 14.5485 16.1431 14.8047C15.9156 15.0583 15.645 15.3342 15.3312 15.6323L14.339 16.601V16.6442H17.0531V17.4521ZM19.7162 13.8673C20.0849 13.8673 20.4091 13.934 20.6889 14.0674C20.9713 14.1981 21.1909 14.3916 21.3478 14.6478C21.5047 14.9015 21.5831 15.2126 21.5831 15.5813C21.5831 15.984 21.4981 16.3317 21.3282 16.6246C21.1582 16.9148 20.9085 17.1384 20.579 17.2953C20.2496 17.4521 19.8482 17.5306 19.375 17.5306C19.0743 17.5306 18.7932 17.5044 18.5317 17.4521C18.2728 17.3999 18.0493 17.3214 17.861 17.2168V16.3853C18.0571 16.4952 18.2924 16.5854 18.567 16.656C18.8415 16.7239 19.1043 16.7579 19.3553 16.7579C19.622 16.7579 19.8508 16.7187 20.0417 16.6403C20.2326 16.5618 20.379 16.4415 20.481 16.2794C20.5856 16.1173 20.6379 15.9121 20.6379 15.6637C20.6379 15.3342 20.532 15.0806 20.3202 14.9028C20.111 14.7224 19.7829 14.6321 19.3357 14.6321C19.1788 14.6321 19.0115 14.6465 18.8337 14.6753C18.6585 14.7014 18.5121 14.7302 18.3944 14.7616L17.9904 14.5223L18.2062 11.718H21.187V12.5299H19.018L18.8925 13.9575C18.9867 13.9366 19.0991 13.917 19.2298 13.8987C19.3606 13.8778 19.5227 13.8673 19.7162 13.8673ZM23.5873 11.6356C24.0083 11.6356 24.3273 11.7925 24.5443 12.1063C24.7613 12.4175 24.8698 12.858 24.8698 13.4281C24.8698 13.9955 24.7653 14.4387 24.5561 14.7577C24.3495 15.0767 24.0266 15.2362 23.5873 15.2362C23.1768 15.2362 22.8643 15.0767 22.6499 14.7577C22.4355 14.4387 22.3283 13.9955 22.3283 13.4281C22.3283 12.858 22.429 12.4175 22.6303 12.1063C22.8343 11.7925 23.1533 11.6356 23.5873 11.6356ZM23.5912 12.2789C23.4213 12.2789 23.2958 12.3743 23.2147 12.5652C23.1363 12.7561 23.097 13.045 23.097 13.432C23.097 13.8163 23.1363 14.1066 23.2147 14.3027C23.2958 14.4962 23.4213 14.5929 23.5912 14.5929C23.7638 14.5929 23.8919 14.4962 23.9756 14.3027C24.0619 14.1092 24.105 13.819 24.105 13.432C24.105 13.0476 24.0632 12.76 23.9795 12.5691C23.8958 12.3756 23.7664 12.2789 23.5912 12.2789ZM27.4388 11.718L24.258 17.4521H23.501L26.6819 11.718H27.4388ZM27.3329 13.9301C27.7539 13.9301 28.0729 14.087 28.2899 14.4007C28.5096 14.7119 28.6194 15.1525 28.6194 15.7225C28.6194 16.2873 28.5148 16.7292 28.3056 17.0482C28.0991 17.3672 27.7748 17.5267 27.3329 17.5267C26.9224 17.5267 26.61 17.3672 26.3955 17.0482C26.1811 16.7292 26.0739 16.2873 26.0739 15.7225C26.0739 15.1525 26.1746 14.7119 26.3759 14.4007C26.5799 14.087 26.8989 13.9301 27.3329 13.9301ZM27.3369 14.5733C27.1669 14.5733 27.0414 14.6688 26.9603 14.8596C26.8819 15.0505 26.8427 15.3394 26.8427 15.7264C26.8427 16.1108 26.8819 16.401 26.9603 16.5971C27.0414 16.7906 27.1669 16.8874 27.3369 16.8874C27.512 16.8874 27.6415 16.7919 27.7251 16.601C27.8088 16.4076 27.8507 16.116 27.8507 15.7264C27.8507 15.342 27.8088 15.0544 27.7251 14.8635C27.6415 14.6701 27.512 14.5733 27.3369 14.5733Z" fill="#F9F9F9"/>
<path d="M39.5631 12.5178C39.5631 12.5178 37.4503 15.3866 36.6943 15.3866C35.9383 15.3866 33.8256 12.5178 33.8256 12.5178" stroke="#433B5A" stroke-width="0.717188" strokeLinecap="round" strokeLinejoin="round"/>
</svg>
