<svg width="55" height="29" viewBox="0 0 55 29" fill="none" xmlns="http://www.w3.org/2000/svg">
<rect x="0.367432" y="0.852539" width="54.5063" height="27.54" rx="13.77" fill="#100827"/>
<path d="M15.1195 14.5377C15.4881 14.5377 15.8124 14.6044 16.0921 14.7378C16.3745 14.8685 16.5942 15.062 16.7511 15.3182C16.9079 15.5719 16.9864 15.883 16.9864 16.2517C16.9864 16.6544 16.9014 17.0021 16.7314 17.295C16.5615 17.5852 16.3118 17.8088 15.9823 17.9657C15.6529 18.1226 15.2515 18.201 14.7782 18.201C14.4775 18.201 14.1964 18.1749 13.935 18.1226C13.6761 18.0703 13.4526 17.9918 13.2643 17.8872V17.0557C13.4604 17.1656 13.6957 17.2558 13.9703 17.3264C14.2448 17.3944 14.5076 17.4283 14.7586 17.4283C15.0253 17.4283 15.2541 17.3891 15.445 17.3107C15.6359 17.2322 15.7823 17.112 15.8843 16.9498C15.9889 16.7877 16.0412 16.5825 16.0412 16.3341C16.0412 16.0046 15.9353 15.751 15.7235 15.5732C15.5143 15.3928 15.1861 15.3026 14.739 15.3026C14.5821 15.3026 14.4148 15.3169 14.237 15.3457C14.0618 15.3718 13.9154 15.4006 13.7977 15.432L13.3937 15.1927L13.6094 12.3884H16.5902V13.2003H14.4213L14.2958 14.628C14.3899 14.607 14.5024 14.5874 14.6331 14.5691C14.7638 14.5482 14.926 14.5377 15.1195 14.5377ZM21.6498 15.2516C21.6498 15.7144 21.6132 16.1288 21.54 16.4949C21.4694 16.8583 21.3569 17.1669 21.2027 17.4205C21.0484 17.6741 20.8471 17.8676 20.5987 18.001C20.3503 18.1343 20.0496 18.201 19.6966 18.201C19.2547 18.201 18.8899 18.0846 18.6023 17.8519C18.3147 17.6166 18.1016 17.2793 17.963 16.84C17.8244 16.3981 17.7551 15.8686 17.7551 15.2516C17.7551 14.6345 17.8179 14.1063 17.9434 13.667C18.0715 13.2251 18.2781 12.8865 18.5631 12.6512C18.8481 12.4159 19.2259 12.2982 19.6966 12.2982C20.1411 12.2982 20.5071 12.4159 20.7948 12.6512C21.085 12.8839 21.2994 13.2212 21.438 13.6631C21.5792 14.1024 21.6498 14.6319 21.6498 15.2516ZM18.6847 15.2516C18.6847 15.7353 18.716 16.1393 18.7788 16.4635C18.8442 16.7877 18.9514 17.0309 19.1004 17.193C19.2494 17.3525 19.4482 17.4323 19.6966 17.4323C19.945 17.4323 20.1437 17.3525 20.2927 17.193C20.4418 17.0335 20.549 16.7917 20.6143 16.4674C20.6823 16.1432 20.7163 15.7379 20.7163 15.2516C20.7163 14.7705 20.6836 14.3678 20.6183 14.0436C20.5529 13.7193 20.4457 13.4762 20.2967 13.314C20.1476 13.1493 19.9476 13.0669 19.6966 13.0669C19.4456 13.0669 19.2455 13.1493 19.0965 13.314C18.9501 13.4762 18.8442 13.7193 18.7788 14.0436C18.716 14.3678 18.6847 14.7705 18.6847 15.2516ZM23.5873 12.3061C24.0083 12.3061 24.3273 12.4629 24.5443 12.7767C24.7613 13.0879 24.8698 13.5284 24.8698 14.0985C24.8698 14.6659 24.7653 15.1091 24.5561 15.4281C24.3495 15.7471 24.0266 15.9066 23.5873 15.9066C23.1768 15.9066 22.8643 15.7471 22.6499 15.4281C22.4355 15.1091 22.3283 14.6659 22.3283 14.0985C22.3283 13.5284 22.429 13.0879 22.6303 12.7767C22.8343 12.4629 23.1533 12.3061 23.5873 12.3061ZM23.5912 12.9493C23.4213 12.9493 23.2958 13.0447 23.2147 13.2356C23.1363 13.4265 23.097 13.7154 23.097 14.1024C23.097 14.4868 23.1363 14.777 23.2147 14.9731C23.2958 15.1666 23.4213 15.2633 23.5912 15.2633C23.7638 15.2633 23.8919 15.1666 23.9756 14.9731C24.0619 14.7796 24.105 14.4894 24.105 14.1024C24.105 13.718 24.0632 13.4304 23.9795 13.2395C23.8958 13.046 23.7664 12.9493 23.5912 12.9493ZM27.4388 12.3884L24.258 18.1226H23.501L26.6819 12.3884H27.4388ZM27.3329 14.6005C27.7539 14.6005 28.0729 14.7574 28.2899 15.0711C28.5096 15.3823 28.6194 15.8229 28.6194 16.3929C28.6194 16.9577 28.5148 17.3996 28.3056 17.7186C28.0991 18.0376 27.7748 18.1971 27.3329 18.1971C26.9224 18.1971 26.61 18.0376 26.3955 17.7186C26.1811 17.3996 26.0739 16.9577 26.0739 16.3929C26.0739 15.8229 26.1746 15.3823 26.3759 15.0711C26.5799 14.7574 26.8989 14.6005 27.3329 14.6005ZM27.3369 15.2437C27.1669 15.2437 27.0414 15.3392 26.9603 15.53C26.8819 15.7209 26.8427 16.0098 26.8427 16.3968C26.8427 16.7812 26.8819 17.0714 26.9603 17.2675C27.0414 17.461 27.1669 17.5578 27.3369 17.5578C27.512 17.5578 27.6415 17.4623 27.7251 17.2715C27.8088 17.078 27.8507 16.7864 27.8507 16.3968C27.8507 16.0125 27.8088 15.7248 27.7251 15.534C27.6415 15.3405 27.512 15.2437 27.3369 15.2437Z" fill="#F9F9F9"/>
<path d="M39.5631 13.1883C39.5631 13.1883 37.4503 16.057 36.6943 16.057C35.9383 16.057 33.8256 13.1882 33.8256 13.1882" stroke="#433B5A" stroke-width="0.717188" stroke-linecap="round" stroke-linejoin="round"/>
</svg>
