<svg width="26" height="27" viewBox="0 0 26 27" fill="none" xmlns="http://www.w3.org/2000/svg">
<path fill-rule="evenodd" clip-rule="evenodd" d="M12.7344 19.5806C12.9535 21.3023 12.9536 23.5274 12.9536 26.5H13.0464C13.0464 23.5274 13.0465 21.3023 13.2656 19.5806C13.4846 17.8601 13.9216 16.6488 14.7907 15.7003C14.9212 15.5579 15.0579 15.4212 15.2003 15.2907C16.1488 14.4216 17.3601 13.9846 19.0806 13.7656C20.8023 13.5465 23.0274 13.5464 26 13.5464V13.4536C23.0274 13.4536 20.8023 13.4535 19.0806 13.2344C17.3601 13.0154 16.1488 12.5784 15.2003 11.7093C15.0579 11.5788 14.9212 11.4421 14.7907 11.2997C13.9216 10.3512 13.4846 9.13992 13.2656 7.41941C13.0465 5.69771 13.0464 3.47264 13.0464 0.499997H12.9536C12.9536 3.47264 12.9535 5.69771 12.7344 7.41941C12.5154 9.13992 12.0784 10.3512 11.2093 11.2997C11.0788 11.4421 10.9421 11.5788 10.7997 11.7093C9.85121 12.5784 8.63992 13.0154 6.91941 13.2344C5.19771 13.4535 2.97264 13.4536 0 13.4536V13.5464C2.97264 13.5464 5.19771 13.5465 6.91941 13.7656C8.63992 13.9846 9.85121 14.4216 10.7997 15.2907C10.9421 15.4212 11.0788 15.5579 11.2093 15.7003C12.0784 16.6488 12.5154 17.8601 12.7344 19.5806ZM4.5712 13.5C5.45049 13.4685 6.23195 13.4155 6.93113 13.3265C8.66125 13.1063 9.8941 12.6651 10.8625 11.7777C11.0069 11.6454 11.1454 11.5069 11.2777 11.3625C12.1651 10.3941 12.6063 9.16124 12.8265 7.43113C12.9155 6.73195 12.9685 5.95048 13 5.07119C13.0315 5.95048 13.0845 6.73195 13.1735 7.43113C13.3937 9.16124 13.8349 10.3941 14.7223 11.3625C14.8546 11.5069 14.9931 11.6454 15.1375 11.7777C16.1059 12.6651 17.3388 13.1063 19.0689 13.3265C19.7681 13.4155 20.5495 13.4685 21.4288 13.5C20.5495 13.5315 19.7681 13.5845 19.0689 13.6735C17.3388 13.8937 16.1059 14.3349 15.1375 15.2223C14.9931 15.3546 14.8546 15.4931 14.7223 15.6375C13.8349 16.6059 13.3937 17.8388 13.1735 19.5689C13.0845 20.2681 13.0315 21.0495 13 21.9288C12.9685 21.0495 12.9155 20.2681 12.8265 19.5689C12.6063 17.8388 12.1651 16.6059 11.2777 15.6375C11.1454 15.4931 11.0069 15.3546 10.8625 15.2223C9.8941 14.3349 8.66125 13.8937 6.93113 13.6735C6.23195 13.5845 5.45049 13.5315 4.5712 13.5Z" fill="#D0F5FF"/>
<path d="M6.93113 13.3265C6.23195 13.4155 5.45049 13.4685 4.5712 13.5C5.45049 13.5315 6.23195 13.5845 6.93113 13.6735C8.66125 13.8937 9.8941 14.3349 10.8625 15.2223C11.0069 15.3546 11.1454 15.4931 11.2777 15.6375C12.1651 16.6059 12.6063 17.8388 12.8265 19.5689C12.9155 20.2681 12.9685 21.0495 13 21.9288C13.0315 21.0495 13.0845 20.2681 13.1735 19.5689C13.3937 17.8388 13.8349 16.6059 14.7223 15.6375C14.8546 15.4931 14.9931 15.3546 15.1375 15.2223C16.1059 14.3349 17.3388 13.8937 19.0689 13.6735C19.7681 13.5845 20.5495 13.5315 21.4288 13.5C20.5495 13.4685 19.7681 13.4155 19.0689 13.3265C17.3388 13.1063 16.1059 12.6651 15.1375 11.7777C14.9931 11.6454 14.8546 11.5069 14.7223 11.3625C13.8349 10.3941 13.3937 9.16124 13.1735 7.43113C13.0845 6.73195 13.0315 5.95048 13 5.07119C12.9685 5.95048 12.9155 6.73195 12.8265 7.43113C12.6063 9.16124 12.1651 10.3941 11.2777 11.3625C11.1454 11.5069 11.0069 11.6454 10.8625 11.7777C9.8941 12.6651 8.66125 13.1063 6.93113 13.3265Z" fill="#D0F5FF"/>
</svg>
