<svg width="18" height="18" viewBox="0 0 18 18" fill="none" xmlns="http://www.w3.org/2000/svg">
<path d="M8.98792 11.8402L11.6891 14.9113C12.6898 16.0491 13.1902 16.618 13.714 16.4795C14.2377 16.341 14.4174 15.5923 14.7766 14.0948L16.7692 5.78825C17.3224 3.48193 17.599 2.32878 16.9841 1.76C16.3692 1.19122 15.3034 1.61437 13.1718 2.46068L3.28238 6.38707C1.57752 7.06395 0.725091 7.40242 0.670974 7.984C0.665433 8.0435 0.665341 8.10342 0.670699 8.16292C0.723033 8.74475 1.57442 9.08608 3.27721 9.76858C4.04873 10.0778 4.4345 10.2325 4.71108 10.5287C4.74218 10.5619 4.77208 10.5964 4.80073 10.632C5.05557 10.9487 5.16432 11.3642 5.38182 12.1953L5.78886 13.7508C6.0005 14.5596 6.10632 14.964 6.38348 15.0192C6.66064 15.0742 6.90196 14.7389 7.38458 14.0682L8.98792 11.8402ZM8.98792 11.8402L8.72308 11.5642C8.42167 11.2501 8.271 11.0931 8.271 10.8979C8.271 10.7027 8.42167 10.5457 8.72308 10.2315L11.7006 7.12841" stroke="#FDFDFD" stroke-width="1.25" strokeLinecap="round" strokeLinejoin="round"/>
</svg>
