<svg width="16" height="16" viewBox="0 0 16 16" fill="none" xmlns="http://www.w3.org/2000/svg">
<path d="M5.84641 1.66675C5.66503 1.7316 5.48721 1.8037 5.31335 1.88268M3.61684 2.97719C3.46584 3.1096 3.32087 3.24845 3.18239 3.39327M2.02135 5.04325C1.89749 5.29211 1.78892 5.54956 1.69682 5.81443M1.34422 7.59435C1.32941 7.85395 1.32997 8.11861 1.34573 8.37828M1.71246 10.1773C1.80114 10.4265 1.90444 10.6691 2.02135 10.9039M3.1274 12.4957C3.29021 12.6701 3.46231 12.836 3.64293 12.9928M5.18439 14.0043C5.44731 14.1303 5.71967 14.2405 6.00016 14.3334" stroke="#433B5A" strokeLinecap="round" strokeLinejoin="round"/>
<path d="M8 14.6666C11.6819 14.6666 14.6667 11.6818 14.6667 7.99992C14.6667 4.31802 11.6819 1.33325 8 1.33325" stroke="#433B5A" strokeLinecap="round"/>
<path d="M8 9C8.55227 9 9 8.55227 9 8C9 7.44773 8.55227 7 8 7M8 9C7.44773 9 7 8.55227 7 8C7 7.44773 7.44773 7 8 7M8 9V10.6667M8 7V4" stroke="#433B5A" strokeLinecap="round"/>
</svg>
