<svg width="55" height="29" viewBox="0 0 55 29" fill="none" xmlns="http://www.w3.org/2000/svg">
<rect x="0.281494" y="0.521973" width="54.5063" height="27.54" rx="13.77" fill="#0F96E3"/>
<path d="M17.6005 14.9171C17.6005 15.359 17.5443 15.7616 17.4319 16.1251C17.3221 16.4859 17.156 16.7971 16.9338 17.0586C16.7115 17.3174 16.4331 17.5174 16.0984 17.6586C15.7637 17.7998 15.3715 17.8704 14.9217 17.8704C14.4642 17.8704 14.0667 17.7998 13.7294 17.6586C13.3947 17.5174 13.1163 17.3161 12.894 17.0546C12.6744 16.7932 12.5096 16.4807 12.3998 16.1172C12.29 15.7538 12.2351 15.3511 12.2351 14.9092C12.2351 14.3183 12.3318 13.8032 12.5253 13.3639C12.7214 12.922 13.0182 12.5795 13.4156 12.3363C13.8157 12.0905 14.3204 11.9676 14.9296 11.9676C15.5257 11.9676 16.0212 12.0892 16.4161 12.3324C16.8109 12.5756 17.1064 12.9181 17.3025 13.36C17.5012 13.7993 17.6005 14.3183 17.6005 14.9171ZM13.2235 14.9171C13.2235 15.359 13.2836 15.742 13.4039 16.0663C13.5242 16.3879 13.7085 16.6363 13.9569 16.8115C14.2079 16.984 14.5295 17.0703 14.9217 17.0703C15.3166 17.0703 15.6382 16.984 15.8866 16.8115C16.135 16.6363 16.318 16.3879 16.4357 16.0663C16.5533 15.742 16.6122 15.359 16.6122 14.9171C16.6122 14.2451 16.4775 13.7195 16.2082 13.3404C15.9415 12.9586 15.5153 12.7678 14.9296 12.7678C14.5374 12.7678 14.2145 12.854 13.9608 13.0266C13.7098 13.1992 13.5242 13.4463 13.4039 13.7679C13.2836 14.0869 13.2235 14.47 13.2235 14.9171ZM23.6171 17.792H22.4601L19.6518 13.2149H19.6165C19.627 13.3691 19.6361 13.5326 19.644 13.7051C19.6544 13.8777 19.6623 14.0555 19.6675 14.2386C19.6754 14.4216 19.6819 14.6072 19.6871 14.7955V17.792H18.8321V12.0579H19.9813L22.7856 16.6036H22.813C22.8078 16.4702 22.8013 16.3173 22.7934 16.1447C22.7856 15.9721 22.7777 15.7943 22.7699 15.6113C22.7647 15.4256 22.7608 15.2465 22.7581 15.074V12.0579H23.6171V17.792Z" fill="#F9F9F9"/>
<g filter="url(#filter0_di_303_7113)">
<rect x="31.8376" y="5.11182" width="18.36" height="18.36" rx="9.18" fill="#F9F9F9"/>
</g>
<defs>
<filter id="filter0_di_303_7113" x="30.6901" y="5.11182" width="20.6551" height="22.663" filterUnits="userSpaceOnUse" color-interpolation-filters="sRGB">
<feFlood flood-opacity="0" result="BackgroundImageFix"/>
<feColorMatrix in="SourceAlpha" type="matrix" values="0 0 0 0 0 0 0 0 0 0 0 0 0 0 0 0 0 0 127 0" result="hardAlpha"/>
<feMorphology radius="1.72125" operator="erode" in="SourceAlpha" result="effect1_dropShadow_303_7113"/>
<feOffset dy="3.15563"/>
<feGaussianBlur stdDeviation="1.43438"/>
<feColorMatrix type="matrix" values="0 0 0 0 0.054902 0 0 0 0 0.054902 0 0 0 0 0.172549 0 0 0 0.2 0"/>
<feBlend mode="normal" in2="BackgroundImageFix" result="effect1_dropShadow_303_7113"/>
<feBlend mode="normal" in="SourceGraphic" in2="effect1_dropShadow_303_7113" result="shape"/>
<feColorMatrix in="SourceAlpha" type="matrix" values="0 0 0 0 0 0 0 0 0 0 0 0 0 0 0 0 0 0 127 0" result="hardAlpha"/>
<feOffset dy="-0.57375"/>
<feComposite in2="hardAlpha" operator="arithmetic" k2="-1" k3="1"/>
<feColorMatrix type="matrix" values="0 0 0 0 0.054902 0 0 0 0 0.054902 0 0 0 0 0.172549 0 0 0 0.4 0"/>
<feBlend mode="overlay" in2="shape" result="effect2_innerShadow_303_7113"/>
</filter>
</defs>
</svg>
