<svg width="55" height="28" viewBox="0 0 55 28" fill="none" xmlns="http://www.w3.org/2000/svg">
<rect x="0.28125" y="0.182129" width="54.5063" height="27.54" rx="13.77" fill="#100827"/>
<g filter="url(#filter0_di_303_7073)">
<rect x="4.87134" y="4.77197" width="18.36" height="18.36" rx="9.18" fill="#F9F9F9"/>
</g>
<path d="M34.1565 14.5772C34.1565 15.0191 34.1002 15.4218 33.9878 15.7852C33.878 16.1461 33.712 16.4572 33.4897 16.7187C33.2674 16.9776 32.989 17.1776 32.6543 17.3188C32.3196 17.46 31.9274 17.5306 31.4777 17.5306C31.0201 17.5306 30.6226 17.46 30.2853 17.3188C29.9506 17.1776 29.6722 16.9763 29.4499 16.7148C29.2303 16.4533 29.0655 16.1409 28.9557 15.7774C28.8459 15.414 28.791 15.0113 28.791 14.5694C28.791 13.9785 28.8877 13.4634 29.0812 13.0241C29.2773 12.5822 29.5741 12.2397 29.9716 11.9965C30.3716 11.7507 30.8763 11.6278 31.4855 11.6278C32.0817 11.6278 32.5772 11.7494 32.972 11.9926C33.3668 12.2357 33.6623 12.5783 33.8584 13.0202C34.0571 13.4594 34.1565 13.9785 34.1565 14.5772ZM29.7794 14.5772C29.7794 15.0191 29.8395 15.4022 29.9598 15.7264C30.0801 16.048 30.2644 16.2964 30.5128 16.4716C30.7638 16.6442 31.0854 16.7305 31.4777 16.7305C31.8725 16.7305 32.1941 16.6442 32.4425 16.4716C32.6909 16.2964 32.8739 16.048 32.9916 15.7264C33.1093 15.4022 33.1681 15.0191 33.1681 14.5772C33.1681 13.9052 33.0334 13.3797 32.7641 13.0005C32.4974 12.6188 32.0712 12.4279 31.4855 12.4279C31.0933 12.4279 30.7704 12.5142 30.5167 12.6868C30.2657 12.8593 30.0801 13.1064 29.9598 13.4281C29.8395 13.7471 29.7794 14.1301 29.7794 14.5772ZM36.3215 17.4521H35.388V11.718H38.6277V12.5103H36.3215V14.2988H38.4786V15.0871H36.3215V17.4521ZM40.6044 17.4521H39.671V11.718H42.9106V12.5103H40.6044V14.2988H42.7616V15.0871H40.6044V17.4521Z" fill="#F9F9F9"/>
<defs>
<filter id="filter0_di_303_7073" x="3.72384" y="4.77197" width="20.6551" height="22.663" filterUnits="userSpaceOnUse" color-interpolation-filters="sRGB">
<feFlood flood-opacity="0" result="BackgroundImageFix"/>
<feColorMatrix in="SourceAlpha" type="matrix" values="0 0 0 0 0 0 0 0 0 0 0 0 0 0 0 0 0 0 127 0" result="hardAlpha"/>
<feMorphology radius="1.72125" operator="erode" in="SourceAlpha" result="effect1_dropShadow_303_7073"/>
<feOffset dy="3.15563"/>
<feGaussianBlur stdDeviation="1.43438"/>
<feColorMatrix type="matrix" values="0 0 0 0 0.054902 0 0 0 0 0.054902 0 0 0 0 0.172549 0 0 0 0.2 0"/>
<feBlend mode="normal" in2="BackgroundImageFix" result="effect1_dropShadow_303_7073"/>
<feBlend mode="normal" in="SourceGraphic" in2="effect1_dropShadow_303_7073" result="shape"/>
<feColorMatrix in="SourceAlpha" type="matrix" values="0 0 0 0 0 0 0 0 0 0 0 0 0 0 0 0 0 0 127 0" result="hardAlpha"/>
<feOffset dy="-0.57375"/>
<feComposite in2="hardAlpha" operator="arithmetic" k2="-1" k3="1"/>
<feColorMatrix type="matrix" values="0 0 0 0 0.054902 0 0 0 0 0.054902 0 0 0 0 0.172549 0 0 0 0.4 0"/>
<feBlend mode="overlay" in2="shape" result="effect2_innerShadow_303_7073"/>
</filter>
</defs>
</svg>
