<svg width="12" height="12" viewBox="0 0 12 12" fill="none" xmlns="http://www.w3.org/2000/svg">
<path d="M5.5384 1.32982C5.7534 0.991949 6.2466 0.991949 6.4616 1.32982L7.0837 2.30724C7.7716 3.38812 8.6883 4.30482 9.7692 4.99272L10.7466 5.61482C11.0845 5.82982 11.0845 6.32302 10.7466 6.53802L9.7692 7.16012C8.6883 7.84802 7.7716 8.76472 7.0837 9.84562L6.4616 10.823C6.2466 11.1609 5.7534 11.1609 5.5384 10.823L4.9163 9.84562C4.2284 8.76472 3.3117 7.84802 2.23082 7.16012L1.2534 6.53802C0.915532 6.32302 0.915532 5.82982 1.2534 5.61482L2.23082 4.99272C3.3117 4.30482 4.2284 3.38812 4.9163 2.30724L5.5384 1.32982Z" stroke="#0F96E3" stroke-width="1.5" strokeLinejoin="round"/>
</svg>
